<?xml version="1.0" encoding="utf-8"?>
<!-- Generator: Adobe Illustrator 14.0.0, SVG Export Plug-In . SVG Version: 6.00 Build 43363)  -->
<!DOCTYPE svg PUBLIC "-//W3C//DTD SVG 1.1//EN" "http://www.w3.org/Graphics/SVG/1.1/DTD/svg11.dtd">
<svg version="1.1" id="Layer_2" xmlns="http://www.w3.org/2000/svg" xmlns:xlink="http://www.w3.org/1999/xlink" x="0px" y="0px"
	 width="576px" height="576px" viewBox="0 0 576 576" enable-background="new 0 0 576 576" xml:space="preserve">
<path fill="#5CCBF0" d="M232.675,458.357c-8.232-23.734-2.849-56.323,2.355-87.841c5.04-30.509,9.797-59.325,2.64-79.963
	c-6.28-18.102-18.401-32.817-25.475-40.352c0.771-0.326,1.546-0.641,2.332-0.91c7.696-2.671,13.088-1.76,13.142-1.75
	c0.662,0.12,1.313-0.258,1.546-0.892c0.231-0.633-0.025-1.341-0.61-1.677l-16.478-9.537c9.435-6.456,17.114-14.958,22.919-24.813
	c-22.266-20.013-35.238-52.746-32.406-87.831c1.247-15.43,5.439-29.867,11.847-42.595c-24.88-25.15-59.489-36.025-90.184-25.38
	c-1.867,0.648-3.734,1.382-5.548,2.179c-43.323,19.06-60.305,76.084-37.856,127.119c20.809,47.3,67.738,73.409,109.777,61.404
	l0.63,17.816c0.019,0.571,0.387,1.07,0.927,1.258c0.302,0.109,0.624,0.104,0.914,0.004c0.227-0.079,0.435-0.217,0.598-0.406
	c4.125-4.788,8.564-8.573,13.252-11.359c6.472,6.746,19.186,21.561,25.421,39.539c6.697,19.308,2.049,47.444-2.871,77.238
	c-5.318,32.2-10.818,65.5-2.122,90.568c12.161,35.062,42.728,62.696,58.823,75.379c1.389-1.119,2.865-2.339,4.423-3.661
	C275.363,519.866,244.473,492.369,232.675,458.357z"/>
<path fill="#DE549E" d="M455.796,62.551c-1.814-0.797-3.682-1.53-5.547-2.179c-28.844-10.003-61.139-0.997-85.578,20.994
	c7.241,16.342,10.696,35.318,9.088,55.242c-2.509,31.056-16.522,57.929-36.818,74.919c6.023,11.845,14.596,22.011,25.485,29.463
	l-16.479,9.537c-0.584,0.336-0.84,1.044-0.609,1.677c0.232,0.633,0.887,1.011,1.547,0.891c0.056-0.009,5.445-0.92,13.144,1.751
	c0.784,0.27,1.56,0.584,2.33,0.91c-7.075,7.535-19.195,22.25-25.475,40.352c-7.157,20.64-2.399,49.456,2.641,79.964
	c5.203,31.517,10.587,64.106,2.354,87.842c-7.548,21.761-22.915,40.852-37.019,54.938c-3.444,6.521-6.796,12.135-9.619,16.57
	c0.006-0.006,0.014-0.011,0.021-0.018c16.796-14.313,41.29-39.183,51.864-69.671c8.694-25.067,3.195-58.367-2.123-90.566
	c-4.92-29.794-9.567-57.932-2.871-77.238c6.236-17.978,18.95-32.793,25.421-39.539c4.688,2.786,9.13,6.571,13.253,11.359
	c0.165,0.188,0.373,0.327,0.6,0.405c0.289,0.1,0.61,0.105,0.913-0.005c0.541-0.188,0.909-0.687,0.929-1.258l0.63-17.815
	c42.039,12.004,88.968-14.105,109.777-61.405C516.102,138.635,499.118,81.611,455.796,62.551z"/>
<path fill="#70C05A" d="M304.858,518.851c10.107-19.135,20.926-46,20.926-73.407c0-26.531-16.105-56.19-31.685-84.871
	c-14.412-26.535-28.022-51.598-28.022-72.031c0-19.03,7.16-37.192,11.063-45.688c5.341,1.097,10.776,3.218,16.241,6.39
	c0.217,0.125,0.458,0.188,0.698,0.188c0.308,0,0.612-0.103,0.863-0.303c0.447-0.355,0.632-0.948,0.464-1.494l-5.242-17.039
	c17.331-0.966,33.412-7.879,46.775-19.068c20.296-16.99,34.31-43.863,36.818-74.919c1.608-19.924-1.847-38.9-9.088-55.242
	c-12.952-29.238-38.071-50.009-68.333-52.452c-1.975-0.159-3.979-0.24-5.956-0.24c-31.801,0-60.38,20.717-75.893,51.524
	c-6.408,12.728-10.601,27.165-11.847,42.595c-2.833,35.085,10.14,67.817,32.406,87.831c9.109,8.188,19.766,14.26,31.546,17.473
	l-12.444,14.41c-0.44,0.51-0.451,1.262-0.025,1.785c0.427,0.522,1.167,0.666,1.753,0.335c0.048-0.027,4.843-2.654,12.991-2.654
	c0.83,0,1.665,0.042,2.5,0.096c-4.216,9.438-10.845,27.312-10.845,46.473c0,21.844,13.939,47.511,28.696,74.682
	c15.246,28.071,31.01,57.099,31.01,82.221c0,34.402-18.425,68.897-29.245,86.189c-4.415,7.06-7.57,11.27-7.678,11.41
	c-0.508,0.669-0.637,1.483-0.478,2.246c0.133,0.63,0.454,1.224,1.007,1.645c0.503,0.381,1.093,0.566,1.679,0.566
	c0.838,0,1.665-0.378,2.212-1.096c0.307-0.402,1.986-2.642,4.466-6.323c0.915-1.36,1.939-2.918,3.047-4.66
	C298.062,530.985,301.414,525.371,304.858,518.851z"/>
</svg>
